#N canvas 420 371 865 550 10;
#X obj 279 117 cnv 15 15 15 empty \$0-midi2-gui-r empty 20 12 0 14
-33289 -1 0;
#X floatatom 104 120 5 0 0 2 - - -, f 5;
#X obj 104 111 cnv 5 5 5 empty empty NOTE 0 0 0 8 -262144 -66577 0
;
#X obj 272 110 cnv 5 5 5 empty empty GATE 0 0 0 8 -262144 -66577 0
;
#X obj 622 121 env~;
#X obj 622 143 > 0;
#X obj 622 166 change;
#X msg 668 251 color \$1;
#X obj 523 37 inlet~ GATE;
#X obj 408 37 inlet~ PITCH;
#X obj 159 127 cnv 5 5 5 empty empty MIDI-OUT 0 0 0 12 -262144 -66577
0;
#X obj 409 191 snapshot~;
#X obj 409 212 * 127;
#X obj 409 256 clip 0 127;
#X obj 668 273 s \$0-midi2-gui-r;
#X obj 409 307 +;
#X obj 107 156 hsl 128 15 0 127 0 0 empty empty OFFSET -2 -8 0 10 -262144
-1 -1 10200 1;
#X obj 427 284 - 64;
#X floatatom 243 158 5 0 0 0 - - -, f 5;
#X obj 409 234 abs;
#X obj 465 403 noteout 1;
#X obj 465 363 f;
#X obj 495 363 * 100;
#X floatatom 105 195 5 1 16 2 CHANNEL - -, f 5;
#X text 214 400 Midi Panic;
#X obj 125 453 ctlout;
#X obj 125 382 until;
#X msg 125 336 16;
#X obj 164 405 + 1;
#X msg 173 382 1;
#X obj 125 404 f;
#X obj 125 359 t f b;
#X msg 125 427 123 123 \$1;
#X obj 622 188 t b f;
#X obj 448 120 threshold~ 0.9 0 0.9 0;
#X obj 673 229 + 12;
#X connect 4 0 5 0;
#X connect 5 0 6 0;
#X connect 6 0 33 0;
#X connect 7 0 14 0;
#X connect 8 0 4 0;
#X connect 8 0 34 0;
#X connect 9 0 11 0;
#X connect 11 0 12 0;
#X connect 12 0 19 0;
#X connect 13 0 15 0;
#X connect 13 0 1 0;
#X connect 15 0 21 1;
#X connect 16 0 17 0;
#X connect 17 0 18 0;
#X connect 17 0 15 1;
#X connect 19 0 13 0;
#X connect 21 0 20 0;
#X connect 22 0 20 1;
#X connect 23 0 20 2;
#X connect 23 0 27 0;
#X connect 26 0 30 0;
#X connect 27 0 31 0;
#X connect 28 0 30 1;
#X connect 29 0 30 1;
#X connect 30 0 28 0;
#X connect 30 0 32 0;
#X connect 31 0 26 0;
#X connect 31 1 29 0;
#X connect 32 0 25 0;
#X connect 33 0 21 0;
#X connect 33 1 22 0;
#X connect 33 1 35 0;
#X connect 34 0 11 0;
#X connect 35 0 7 0;
#X coords 0 -1 1 1 200 120 2 100 100;
